{"title":"Everest(2015)MPEG-4[DaScubaDude]","uid":14419330,"size":1164110972,"categoryP":"video","categoryS":"movies","magnet":"?xt=urn:btih:bb5c47b0221f5eef070c232151434ea7a586eeaa&amp;dn=Everest%282015%29MPEG-4%5BDaScubaDude%5D&amp;tr=udp%3A%2F%2Ftracker.leechers-paradise.org%3A6969&amp;tr=udp%3A%2F%2Fzer0day.ch%3A1337&amp;tr=udp%3A%2F%2Fopen.demonii.com%3A1337&amp;tr=udp%3A%2F%2Ftracker.coppersurfer.tk%3A6969&amp;tr=udp%3A%2F%2Fexodus.desync.com%3A6969","seeders":1,"leechers":0,"uploader":"dascuba","files":1,"time":1461527988,"description":"Everest (2015)\r\nPG-13 | 2h 1min | Adventure, Biography, Drama | 25 September 2015 (USA)\r\nA climbing expedition on Mt. Everest is devastated by a severe snow storm.\r\nDirector: Baltasar Kormákur\r\nWriters: William Nicholson (screenplay), Simon Beaufoy (screenplay)\r\nStars: Jason Clarke, Ang Phula Sherpa, Thomas M. Wright\r\n\r\nGeneral\r\nComplete name                            : EverestEVEREST_Title34.mp4\r\nFormat                                   : MPEG-4\r\nFormat profile                           : Base Media\r\nCodec ID                                 : isom\r\nFile size                                : 1.08 GiB\r\nDuration                                 : 2h 1mn\r\nOverall bit rate                         : 1 281 Kbps\r\nMovie name                               : EVEREST\r\nGenre                                    : Action\r\nWriting application                      : Lavf54.6.100\r\n\r\nVideo\r\nID                                       : 1\r\nFormat                                   : AVC\r\nFormat/Info                              : Advanced Video Codec\r\nFormat profile                           :   \r\nFormat settings, CABAC                   : No\r\nFormat settings, ReFrames                : 6 frames\r\nCodec ID                                 : avc1\r\nCodec ID/Info                            : Advanced Video Coding\r\nDuration                                 : 2h 1mn\r\nBit rate                                 : 1 146 Kbps\r\nWidth                                    : 720 pixels\r\nHeight                                   : 404 pixels\r\nDisplay aspect ratio                     : 16:9\r\nFrame rate mode                          : Constant\r\nFrame rate                               : 29.970 fps\r\nColor space                              : YUV\r\nChroma subsampling                       : 4:2:0\r\nBit depth                                : 8 bits\r\nScan type                                : Progressive\r\nBits/(Pixel*Frame)                       : 0.131\r\nStream size                              : 993 MiB (89%)\r\n\r\nAudio\r\nID                                       : 2\r\nFormat                                   : AAC\r\nFormat/Info                              : Advanced Audio Codec\r\nFormat profile                           : LC\r\nCodec ID                                 : 40\r\nDuration                                 : 2h 1mn\r\nBit rate mode                            : Constant\r\nBit rate                                 : 128 Kbps\r\nChannel(s)                               : 2 channels\r\nChannel positions                        : Front: L R\r\nSampling rate                            : 44.1 KHz\r\nCompression mode                         : Lossy\r\nStream size                              : 111 MiB (10%)","torrent":{"xt":"urn:btih:bb5c47b0221f5eef070c232151434ea7a586eeaa","amp;dn":"Everest%282015%29MPEG-4%5BDaScubaDude%5D","amp;tr":["udp%3A%2F%2Ftracker.leechers-paradise.org%3A6969","udp%3A%2F%2Fzer0day.ch%3A1337","udp%3A%2F%2Fopen.demonii.com%3A1337","udp%3A%2F%2Ftracker.coppersurfer.tk%3A6969","udp%3A%2F%2Fexodus.desync.com%3A6969"],"infoHash":"bb5c47b0221f5eef070c232151434ea7a586eeaa","infoHashBuffer":{"type":"Buffer","data":[187,92,71,176,34,31,94,239,7,12,35,33,81,67,78,167,165,134,238,170]},"announce":[],"urlList":[]}}